# xmcd
#
# Track frame offsets: 
#        150
#        15788
#        29780
#        41255
#        57262
#        72576
#        96506
#        115406
#        135891
#        153374
#        163184
#        179099
#
# Disc length: 2511 seconds
#
# Revision: 2
# Processed by: cddbd v1.5.2PL0 Copyright (c) Steve Scherf et al.
# Submitted via: ExactAudioCopyFreeDBPlugin 1.0
#
DISCID=a209cd0c
DTITLE=Spank Rock - YoYoYoYoYo
DYEAR=2006
DGENRE=Hip-Hop
TTITLE0=Backyard Betty
TTITLE1=What It Look Like
TTITLE2=IMC
TTITLE3=Rick Rubin
TTITLE4=Touch Me
TTITLE5=Bump
TTITLE6=Sweet Talk
TTITLE7=Chilly Willy
TTITLE8=Top Billin' from Far Left
TTITLE9=Coke and Wet
TTITLE10=Competition
TTITLE11=Outro (Screwville USA)
EXTD=YEAR: 2006
EXTT0=
EXTT1=
EXTT2=
EXTT3=
EXTT4=
EXTT5=
EXTT6=
EXTT7=
EXTT8=
EXTT9=
EXTT10=
EXTT11=
PLAYORDER=
